<svg xmlns="http://www.w3.org/2000/svg" xmlns:xlink="http://www.w3.org/1999/xlink" width="375" height="148" viewBox="-2 -2 375 148"><g><text x="0" y="14" font-family="PT Mono">synchronous, single thread of control</text><path stroke="#44f" stroke-width="3" d="M 0.5 28.5 L 10.5 28.5"/><path stroke="#c22" stroke-width="1" d="M 10.5 28.5 L 90.5 28.5"/><ellipse width="5" height="5" cx="10" cy="28.5" fill="#c22" rx="2.5" ry="2.5"/><path stroke="#44f" stroke-width="3" d="M 90.5 28.5 L 100.5 28.5"/><path stroke="#c22" stroke-width="1" d="M 100.5 28.5 L 200.5 28.5"/><ellipse width="5" height="5" cx="100" cy="28.5" fill="#c22" rx="2.5" ry="2.5"/><path stroke="#44f" stroke-width="3" d="M 200.5 28.5 L 220.5 28.5"/><text x="0" y="54.5" font-family="PT Mono">synchronous, two threads of control</text><path stroke="#44f" stroke-width="3" d="M 0.5 68.5 L 10.5 68.5"/><path stroke="#c22" stroke-width="1" d="M 10.5 68.5 L 90.5 68.5"/><ellipse width="5" height="5" cx="10" cy="68.5" fill="#c22" rx="2.5" ry="2.5"/><path stroke="#44f" stroke-width="3" d="M 110.5 68.5 L 130.5 68.5"/><path stroke="#44f" stroke-width="3" d="M 0.5 83.5 L 10.5 83.5"/><path stroke="#c22" stroke-width="1" d="M 10.5 83.5 L 110.5 83.5"/><ellipse width="5" height="5" cx="10" cy="83.5" fill="#c22" rx="2.5" ry="2.5"/><path stroke="#44f" stroke-width="3" d="M 110.5 83.5 L 120.5 83.5"/><text x="0" y="109.5" font-family="PT Mono">asynchronous</text><path stroke="#44f" stroke-width="3" d="M 0.5 123.5 L 30.5 123.5"/><path stroke="#c22" stroke-width="1" d="M 10.5 123.5 L 10.5 123.5"/><ellipse width="5" height="5" cx="10" cy="123.5" fill="#c22" rx="2.5" ry="2.5"/><path stroke="#c22" stroke-width="1" d="M 20.5 123.5 L 20.5 123.5"/><ellipse width="5" height="5" cx="20" cy="123.5" fill="#c22" rx="2.5" ry="2.5"/><path fill="none" stroke="#c22" d="M 10.5 123.5 a 20 20 0 0 0 20 20 l 50 0"/><path fill="none" stroke="#c22" d="M 20.5 123.5 a 10 10 0 0 0 10 10 l 80 0"/><path stroke="#44f" stroke-width="3" d="M 110.5 133.5 L 130.5 133.5"/><path stroke="#44f" stroke-width="3" d="M 80.5 143.5 L 90.5 143.5"/></g></svg>